<svg xmlns="http://www.w3.org/2000/svg" viewBox="-669 748.3 79 78"><path id="postcss" fill="#ffffff" fill-opacity="0.2" d="M-597.4 783.4c0-.8-.1-1.7-.2-2.5-.2-1.2-.3-2.3-.6-3.5-.2-.9-.5-1.8-.8-2.7-.4-1-.8-2.1-1.3-3.1-.8-1.6-2-3.1-3-4.6-.7-1-1.5-1.7-2.2-2.7-.4-.6-.9-1-1.5-1.5-.9-.7-1.8-1.3-2.7-1.9-.7-.5-1.4-.9-2.1-1.4l-1.8-.9c-.7-.3-1.4-.7-2.2-.9-.2 0-.4-.1-.6-.2-.5-.2-1-.4-1.5-.5-.8-.2-1.5-.5-2.3-.7s-1.5-.3-2.3-.4c-.9-.1-1.8-.2-2.6-.3-.6-.1-1.1-.1-1.7-.2-.8 0-1.7 0-2.5-.1-.4 0-.8-.1-1.3 0-.6 0-1.3.1-1.9.2l-1.8.3c-.7.1-1.4.1-2.2.2-.7.1-1.4.2-2 .3-.2 0-.5.1-.7.2-.5.1-1.1.2-1.6.3-.9.3-1.9.6-2.8 1-.8.3-1.7.7-2.5 1.2l-2.4 1.5c-.8.5-1.5 1-2.2 1.6-.7.5-1.3 1.2-2 1.8-.3.3-.6.8-1 1.2-.5.6-1.1 1.2-1.6 1.9-.4.5-.8 1.1-1.2 1.7-.7 1-1.4 2.1-2 3.1-.2.4-.5.9-.7 1.3-.3.7-.7 1.3-1 2-.2.5-.4 1-.5 1.5-.3 1.1-.6 2.2-.9 3.2-.3 1-.3 2-.3 2.9s.1 1.7.2 2.6c0 .2-.1.5.2.7-.1.2 0 .4.1.4-.2.2.1.4 0 .6 0 0 .1.1.1.2v.2c0 .2.1.4.1.6 0 .2.1.3.2.5v.2c-.1.2-.1.3.1.4.1.3.1.4 0 .5v.3c.2.3.2.7.3 1.1 0 .1 0 .2.1.3v.4c.1-.1.2-.1.3-.1.1.3.1.5.2.8.1.2.1.3.1.3.1.4.1.8.3 1.1 0-.4 0-.8-.1-1.2.3.1.6.2.7.2 0-.1 0-.2.1-.2-.1-.1-.2-.3-.4-.5v.3c-.1 0-.2-.1-.3-.1l.3-.3c0-.2-.1-.4-.4-.3.1 0 .3-.1.4-.2.2-.1 0-.4 0-.7 0-.4-.2-.7-.3-1.1-.1-.6-.1-1.5-.2-2.1-.1-.1-.2.2-.3.2.1.5.1 1 .2 1.6-.1-.4-.2-.9-.3-1.4v.3c-.1.1 0 .2 0 .4-.2-.1-.3 0-.3 0v.6c-.2-.2-.3-.4-.4-.5 0-.2-.1-.3-.1-.5v-.2c0-.2 0-.3-.1-.5v-.3h.4c-.2-.3-.1-.5 0-.6 0-.1.2-.1.2-.2.2-.3.5-.6.5-1 0-.2.1-.4.1-.6 0-.4.1-.7.1-1.1 0-.5 0-1 .1-1.4.2-.8.4-1.5.6-2.3.2-.5.4-1.1.6-1.6.3-.8.6-1.7 1-2.5.6-1.2 1.3-2.3 1.9-3.5.4-.7.8-1.4 1.3-2.1.4-.7.9-1.4 1.4-2 .7-.9 1.5-1.7 2.3-2.5.9-.8 1.7-1.6 2.6-2.3 1.2-.9 2.5-1.8 3.9-2.5 1.1-.6 2.3-1 3.4-1.5.7-.3 1.5-.4 2.3-.7.9-.3 1.7-.4 2.7-.4.6 0 1.2-.1 1.7-.2.5 0 1-.1 1.6-.2-.1.1-.1.1-.1.2-.2.3-.5.7-.7 1l-.6.9c-.3.5-.7.9-1 1.4-.5.7-1 1.5-1.5 2.2s-1.1 1.4-1.6 2c-.7.9-1.4 1.9-2.1 2.8-.7.9-1.3 1.7-2 2.6-.6.8-1.1 1.6-1.6 2.4l-2.4 3.6c-.6.9-1.3 1.8-1.9 2.7 0 .1-.1.1-.2.1-.2.3-.2.4-.2.6-.2.3-.3.7-.5 1-.1.2-.3.3-.4.5 0-.3.3-.4.2-.7-.1.2-.2.3-.3.5l-.3.5c.1.1.2.1.1.2s-.1.2-.2.3c.1-.1.2-.1.2-.2 0 .2-.1.4-.2.6-.1.2-.3.3-.5.4l.2.1c.2-.1.3-.2.3-.1.1-.1.1-.2.2-.2.1-.2.2-.4.4-.5.1 0 .2-.1.2-.2.7-.7 1.3-1.3 1.9-2.1.9-1.1 1.7-2.3 2.6-3.4.4-.5.8-1 1.2-1.4.1.5 0 1 0 1.4-.1.8-.1 1.6-.2 2.4v1c0 .1-.1.2-.1.2 0 .2.1.5.1.7-.1.8-.2 1.6-.2 2.4 0 .2.1.3.1.5-.1 1.2.1 2.4-.1 3.7.2-.2.2-.4.2-.5v-.6c0-.4.1-.8.1-1.2v-1.3c0-.2 0-.4.1-.6v.3c0 1.2 0 2.5-.2 3.7 0 .1.1.3-.2.3-.2.4 0 .7-.2.9 0 0 0 .2.1.4-.1.3-.1.3 0 .3 0 .5.1.9.1 1.4.3-.8.2-1.7.3-2.5v3.1c-.1.3-.1.6-.2.9-.1.2 0 .5 0 .8v.8c.1.4 0 .6 0 .8-.1.2-.1.3-.1.3l.1.3c.4 0 .2.3.4.5-.1.2-.1.2-.1.3v2.9c0 .1 0 .1-.1.2l-.1-2.8h-.3c0 1.3.1 2.5-.2 3.7-.3 0-.3.1-.6.1h-5.6c-.5 0-1.1-.1-1.6-.1-.8 0-1.6.1-2.4.1h-1.8c-.4 0-.8 0-1.2.1-.2 0-.3.1-.5.2h-.3c-.2 0-.4.2-.6.2-.3.1-.4.2-.4.5v.2l.5-.1s-.1.1-.1.2c.2-.1.3-.1.4-.2.3.2.6.1.9.1.8.2 1.7.3 2.6.4.6 0 1.1.1 1.7.1.8.1 1.6.1 2.4.1.7 0 1.3-.1 2-.1.9 0 1.9 0 2.8.1h2.2c1.4 0 2.8-.1 4.2-.1.8 0 1.6-.1 2.4-.1l2.5-.1h5c.8 0 1.6-.1 2.4-.1.4 0 .9-.1 1.3-.1.5 0 1.1-.1 1.6-.1.8 0 1.6-.1 2.4-.1 1-.1 2-.2 3-.2h2.8c.8 0 1.6-.1 2.4-.1l1.4-.1s.9 0 1.4-.1c.8 0 1.6-.1 2.3-.2h1.5c.8 0 1.6-.1 2.4-.1.3 0 .6 0 1 .1-.2.2-.3.2-.4.3.1 0 .2.1.3.1-.1.1-.2.1-.3.1 0 .1-.1.2-.1.4h.4c-.2 0-.3.2-.4.3-.2 0-.3 0-.4.2.2.1.1.2.1.2-.3.1-.5.2-.3.5-.1 0-.2.1-.3.2-.1.2-.3.2-.3.5.1 0 .2.1.2.1-.1 0-.2.1-.3.2-.4.2-.2.3-.1.5-.1 0-.1.1-.2.1 0 .2.1.2.1.2l-.3.3c-.1.2-.2.3-.2.4-.1.1-.1.3-.2.4-.5.5-.8 1.1-1.4 1.5-.2.2-.4.3-.6.5-.4.4-.7.8-1.2 1.1-.5.5-1.1.9-1.7 1.3-.7.5-1.4 1-2.2 1.5-.4.3-.8.5-1.2.7s-.8.5-1.2.7c-.3.2-.5.4-.8.5-.7.3-1.5.6-2.2.8-.7.3-1.2.6-1.8.8-.5.2-1 .3-1.5.4h-.6c-.4.1-.7.2-1.1.2-1 .1-1.9.2-2.9.3-.6.1-1.1.2-1.7.2h-1.2c-.3 0-.6.1-.9 0-.5-.1-.9-.2-1.4-.3-.1 0-.3-.1-.3 0-.2.1-.3 0-.5 0-.1 0-.2-.1-.3-.1h-.3c-.2-.1-.5-.2-.7-.1-.3 0-.5-.1-.8-.2l-1.2-.3c-.2 0-.3-.1-.4-.2-.6 0-.9 0-1.3-.2-.3-.1-.6-.3-.9-.2h-.2c-.1-.1-.1-.3-.2-.3-.4 0-.7-.3-1.1-.5-.2-.1-.3-.3-.5-.3-.5-.2-.9-.6-1.4-.7-.2 0-.3-.1-.5-.2.1.1.1.2.2.2-.6-.3-1.2-.7-1.8-1-.1 0-.2-.1-.2-.2l-.6-.4c-.3.1-.5-.1-.5-.1-.6-.4-1.3-.7-1.8-1.1-.2-.2-.5-.3-.7-.6-.3-.4-.7-.6-1.1-.8l-.9-.6c-.2-.1-.3-.2-.3-.5 0-.2-.1-.3-.3-.2-.1-.1-.2-.3-.3-.3-.3-.1-.4-.3-.6-.5-.2-.2-.3-.4-.6-.5-.4-.2-.7-.5-1-.8-.6-.7-1.2-1.5-1.7-2.3 0-.1-.1-.1-.2-.2.1.2.2.4.3.7-.2-.1-.4-.2-.5-.4l1.5 2.5c.1.2.2.4.4.6-.3 0-.5-.1-.7-.3-.2-.3-.4-.6-.8-.5 0-.2-.1-.3-.1-.5h-.3c.3.5.6.9.8 1.4-.1-.1-.2-.1-.2-.1.4.4.7.9 1.2 1.2.1.5.7.7.8 1.2-.1 0-.2 0-.3-.1-.2-.2-.4-.4-.6-.7 0 .2.1.3.2.4.3.3.5.7.8.9.1.1.3.2.3.4.2.1.2.1.3.1 0 .1 0 .3.2.3.2.3.3.3.6.2.3.3.4.3.6.1v.3c.1 0 .1-.1.1-.2.1.1.2.1.2.2.2.3.4.6.7.8.4.3.8.7 1.2 1 .8.6 1.6 1.2 2.5 1.6 1 .6 2 1.2 3.1 1.8 1.3.7 2.7 1.1 4.1 1.5l1.5.3c.5.1.9.3 1.4.4.7.2 1.4.3 2.1.4.2 0 .3 0 .5.1h.5c.1.2.2.1.3.1h.5c.6 0 1.2.2 1.8.1.1 0 .3-.1.4.1.2-.1.3-.1.4-.1v.2s-.1 0-.2.1c.8.2 1.5.2 2.2 0 1.1.1 2.1 0 3-.4.1.1.2.3.3 0 0-.1.2-.1.2-.1.2 0 .4-.1.6-.1.2.1.3-.1.4-.1.3 0 .5 0 .7-.1.1 0 .3-.1.4-.1-.1-.1-.3-.1-.5-.1.3-.1.5-.2.7-.3 0 .1-.1.2-.2.2h.3c-.1 0-.2.2-.3.3.8-.2 1.5-.4 2.2-.5-.2-.5.3-.3.4-.6-.2.1-.4.1-.7.2.7-.4 1.5-.7 2.2-1-.1.1-.2.2-.4.3h.3c.3.1.3-.2.4-.4.4 0 .6-.1.8-.1.2-.1.4-.1.7-.2.3-.2.7-.3 1-.5h.3c.2-.2.3-.3.4-.3.3 0 .5-.1.6-.3.2-.1.3-.2.4-.3.5-.3.9-.5 1.4-.8h.3c.3-.1.5-.3.8-.4-.1 0-.1-.1-.2-.1.2 0 .3-.1.4-.1.5-.6 1.2-1 1.8-1.5.2 0 .2-.1.2-.1l.3-.3c.5-.4 1-.8 1.4-1.3.6-.6 1.2-1.3 1.8-2 .5-.6 1-1.2 1.5-1.9.6-.9 1.1-1.9 1.7-2.9.4-.7.7-1.4 1.1-2.1 0-.1.1-.2.2-.2.6-.1 1.2-.1 1.7-.2.1 0 .3-.1.4-.2-.1-.1-.1-.2-.2-.3-.1-.1-.2-.2-.3-.4-.1-.1-.2-.2-.2-.4-.1-.1-.1-.2-.2-.3-.1-.2-.3-.5-.4-.7 0-.1-.1-.2 0-.2.4-.8.5-1.8.9-2.6.4-.9.5-1.9.7-2.8.2-.9.2-1.8.3-2.7.1-.6.2-1.2.2-1.9.1-1 .1-1.9.1-2.9-.2-.4-.3-1.2-.3-2zm-54.6 26.8c-.2-.2-.3-.4-.4-.5l.1-.1c.2.3.5.5.7.8-.2-.1-.3-.1-.4-.2zm.3.2h.2c.1.1.1.2.2.4-.3-.1-.4-.2-.4-.4zm22.7 9c.4-.1.8-.2 1.2-.2v.1c-.4 0-.8.1-1.2.1zm5.5-.6c-.3.1-.6.1-.9.2-.1 0-.2.1-.3-.1h-.1c.1.3.4.1.6.2-.5.1-.9.1-1.4.2.1 0 .3 0 .4-.1v-.1h-.7c-.1 0-.2.1-.2.1h-1.5c1.5-.2 2.9-.4 4.4-.6v.1c-.1 0-.2.1-.3.1zm.3-.2c.5-.1 1-.1 1.4-.2-1 .3-1.3.4-1.4.2zm-19-44c.7-1 1.4-1.9 2.1-2.9l.6-.9c.1-.1.2-.1.3-.2.1-.1.2-.2.2-.3l.3-.6.1-.1c.3.2.3-.2.4-.3.2-.2.4-.5.6-.7.1-.2.3-.3.4-.5 0-.1 0-.2-.1-.3h-.1c.1 0 .1-.1.2-.2.1-.2.3-.4.4-.6.3-.3.5-.7.8-1 0 .1-.1.2-.1.3.3-.3.5-.7.8-1h-.1l-.3.3h-.1c.2-.3.4-.6.7-.9 0 .1.1.2.2.3.1-.2.2-.4.2-.5-.1.1-.2.1-.2.2l-.1-.1.4-.6 1.2-1.8c.2-.2.3-.4.5-.6.4-.8 1.1-1.5 1.6-2.2.1-.2.3-.3.4-.4.1-.1.2-.1.3 0 .6.7 1.2 1.5 1.8 2.2.4.5.9 1.1 1.3 1.6l1.5 2.1c.6.8 1.1 1.6 1.7 2.4.8 1.2 1.6 2.4 2.4 3.7l1.8 2.7h-1.1c-1 0-2.1-.1-3.1-.1l-4.2.3c-1.8.2-3.5.2-5.3.2-.6 0-1.3.1-1.9.1-.8 0-1.5.1-2.3.1-.9 0-1.8.1-2.7.1-.4.2-.9.2-1.5.2zm25 10v.2h-.1l-.3-.9c-.2-.6-.5-1.3-.8-1.8-.4-.6-.8-1.2-1.3-1.9-.1-.2-.3-.3-.4-.4-.5-.5-.9-1-1.5-1.4-.9-.5-1.8-1-2.7-1.4-.3-.1-.5-.2-.8-.4h.5l3.7-.1c.8 0 1.6 0 2.4-.1.2 0 .3.1.4.2.2.3.4.7.6 1 0 0 .1.1.1.2v1.5c0 .5.1 1 .1 1.5v1.5c.1.8.1 1.6.1 2.3zm-23.4-7.3c1 0 2-.1 3-.2.8 0 1.6-.1 2.4-.1h1c-.3.2-.7.3-1 .6l-1.2.9c-.4.3-.7.6-1.1 1-.4.5-.9.9-1.3 1.4-.3.3-.7.7-.9 1-.4.5-.7 1-1 1.5 0-1.9.2-4 .1-6.1zm14.2 21c-.7.2-1.4.4-2.1.5-.6.1-1.2.1-1.9.1-.6 0-1.1 0-1.7-.1-.6-.1-1.3-.1-1.9-.4-.5-.2-1.1-.5-1.6-.7-.5-.3-1-.6-1.4-1-.3-.4-.7-.6-1-.9.1.3.2.5.5.6-.1.1-.3.1-.5-.3-.1 0-.1.1-.2.1.1-.2.1-.3.2-.4-.1-.2-.2-.4-.3-.5-.2-.3-.3-.6-.5-.9 0-.1 0-.1-.1-.2s-.2-.3-.3-.4c-.2-.3-.3-.5-.5-.8v.2l-.5-1.1.4 1.4h-.1c-.1-.1-.1-.2-.2-.3 0-.2-.2-.2-.3-.1-.1 0-.1.2-.1.3.2.4.3.7.5 1.1 0 .1.1.2.2.4 0 0 .1.1.1.2.1.2.2.3.3.5.2.3.4.5.6.8.2.3.4.5.5.8 0 0 .1 0 .1.1.1.3.5.6.7.4.1.5.6.7.8 1.2l-.6-.3v.1c.3.1.5.3.8.4.2.1.4.3.6.4.3.2.6.4.9.5v-.1c.6.3 1.2.6 1.7.8-2.3 0-4.7.1-7.2.1v-1.7c-.1-1-.1-2-.2-3s-.1-2.1-.1-3.1v-4c0-.1 0-.2.1-.3h.1v.1l.2.2c.1-.1.3-.2.4-.3.1-.3.2-.5.2-.8 0-.2.1-.3.2-.5 0-.1.1-.1.1-.2-.1-.1-.2-.1-.3-.2.1-.2.1-.5.4-.7 0 0 0-.1.1-.2 0-.2 0-.4.1-.5 0 .1.1.1.1.1v-.4c.3 0 .2-.3.3-.5v-.2c.3-.1.3-.4.5-.5.1 0 .1-.1.2-.2.2.3-.1.5-.2.7.4-.2.5-.7.3-.9l.2-.2c.2-.3.5-.5.7-.8.2-.2.2-.4.4-.6.1-.1.3-.2.4-.3.4-.2.8-.5 1-.8 0 0 .1-.1.2-.1s.2 0 .2-.1c0 0 0-.2-.1-.2.1 0 .2-.1.3-.2-.1.1-.1.2-.1.3l.1.1c.2-.2.5-.3.7-.5l-.1-.1c-.1.1-.3.2-.5.3 0-.1 0-.1.1-.1.3-.2.6-.4.9-.5.8-.3 1.5-.7 2.3-1 .1-.1.3 0 .5 0h.2c.3-.1.7-.2 1-.3.2 0 .3-.1.5-.1.7 0 1.3 0 2 .1.3 0 .5.1.8.2.3.1.7.3 1 .4.4.2.7.4 1.1.7.6.4 1.2.9 1.8 1.2.6.4 1.1.9 1.5 1.4.5.7 1 1.3 1.2 2.1l.3 1.4c.1.3.2.5.2.8-.1.5-.2 1.1-.3 1.7 0 .2-.1.4-.1.7 0 .7-.2 1.3-.5 1.9l-.3.6c.1 0 .1.1.2.1l.2-.4-.3.9c-.3.7-.5 1.4-.8 2-.2.4-.5.7-.7 1l-.6.9c-.2.2-.4.5-.7.7-.6.4-1.2.9-1.8 1.2-.6 0-1.1.1-1.5.2zm-11.6-1.2c-.1 0-.1 0-.2-.1l-.5-.8c0-.1-.1-.1 0-.2.2.4.4.8.7 1.1zm13.5 3c1-.4 1.8-1 2.5-1.7l.3-.3c.9-.6 1.6-1.4 2.2-2.2.7-1 1.2-2.1 1.7-3.2 0-.1.1-.2.1-.2 0 2.5.2 4.9.6 7.4-2.4 0-4.9.1-7.4.2zm22.1-.6l-.1-.1c-.1.3-.4.2-.6.2h-6.9c-.4 0-.8.1-1.1.1-.9 0-1.8.1-2.7.1-.1 0-.1-.1-.2-.2 0 .1-.1.1-.1.2 0 0-.1-.1-.1-.2 0 .1 0 .1-.1.2h-.1c0-.3-.1-.6-.1-.9 0-.7.1-1.3.1-2v-.9c.1.1.2.1.2.2 0-.1.1-.2.1-.2l-.1-.1.1-.1c0-.1.1-.1.1-.2 0-.2 0-.3-.1-.4h.1l.1.7h.1c-.1-.2.2-.3 0-.5v-.2c-.1-.1-.1-.3-.2-.4 0 0 .1 0 .2-.1-.1 0-.2-.1-.2-.1.2-.2.2-.3 0-.5h.1v-.6c0-.2.1-.5-.3-.6 0 .1 0 .1.1.2 0 0-.1 0-.1.1-.3-.3-.1-.6-.2-1 .2 0 .3.1.4.1 0-.2-.2-.3-.2-.5h-.1v-1.4h.2v-.1c-.1-.1-.2-.2-.2-.3-.2-.2-.1-.5-.1-.6v-1.5c.2.2-.1.5.2.6v-1.2.1l.1-5.2c.2.3.5.5.6.8.5.9 1.2 1.7 1.8 2.5.5.7 1 1.5 1.5 2.2.6.9 1.2 1.8 1.7 2.7.4.7.9 1.3 1.3 2 .4.6.8 1.2 1.3 1.7.4.5.8 1 1.1 1.5.4.6.9 1.2 1.3 1.8.2.3.5.6.7.9.1.2.3.3.5.4h-.1c.1.1.1.2.2.2-.1.2-.1.4-.2.6zm1.1-5.5v-.2.2zm.7-9.6s-.2-.1-.2-.2v.2c0-.1-.2 0-.2-.1 0 .3.1.6.1.9.1 0 .3-.1.4-.1h.1c-.4.3-.3.7-.1 1 0 .1.2.3 0 .4v.3h.1l-.2.1c0-.1-.3-.2-.3-.3v1.1c.2.1.2.4.3.5 0-.1.1-.1.1-.2 0 .1 0 .3-.1.4 0 .2-.1.4-.1.6v.1c-.2.5-.1 1.2-.2 1.7-.1.4 0 .9 0 1.3s-.1.8-.2 1.1c0 .1-.1.1-.2.1v-.7l-.3-.2c0 .3.2.7.2 1.1-.1 0-.3-.2-.3-.2 0 .3 0 .6-.1.9 0 .2-.2.4-.2.7 0 .1.2.2.1.4h.2c0-.4.2-.8.2-1.3h.1l.1.1c0 .2-.1.5-.1.7 0 .1.1.3.1.4 0 .1-.1.3-.1.5v-.2h-.2c0 .1.2.3.1.4h-.1l-.7-1c-.6-.8-1.1-1.7-1.7-2.5-.1-.2-.3-.4-.4-.7-.7-1.2-1.4-2.3-2.2-3.3-.6-.8-1.1-1.7-1.7-2.5-.5-.8-1.1-1.6-1.6-2.4-.2-.3-.4-.5-.6-.8-.6-.9-1.1-1.8-1.6-2.7-.5-.7-1-1.5-1.5-2.2-.2-.2-.3-.5-.5-.8v-.2c0-.5-.1-1-.1-1.4v-2s0-.1.1-.1h-1.9c-.4 0-.6-.2-.9-.5-.8-.9-1.4-2-2.2-3-.7-1-1.4-1.9-2.1-2.8-.6-.8-1.1-1.5-1.7-2.3-.6-.9-1.2-1.7-1.9-2.6-.8-1.1-1.6-2.1-2.4-3.1-.4-.5-.8-.9-1.2-1.4.3 0 .5.1.8.1l1 .1c.8.1 1.6.1 2.3.2.7.1 1.3.2 2 .3 1.4.2 2.9.6 4.2 1.1l2.4.9c1.8.7 3.4 1.6 5.1 2.5.5.3.8.7 1.2 1.2.6.6 1.1 1.2 1.7 1.8.6.7 1.2 1.5 1.8 2.2.5.7 1.1 1.3 1.7 2 .2.2.3.4.5.7.3.5.7 1 1 1.6.2.4.3.9.5 1.4.2.7.4 1.3.7 2 .2.5.3 1 .4 1.5.1.3.1.7.2 1.1.1.5 0 1 .1 1.4 0 0 0 .1.1.2s.2.2 0 .3v.2s.1-.1.1-.2v.4s0 .1.1.2c0 0 .1-.1.2-.1.2.7.2 1.5.2 2.2s.1 1.4-.2 2.1c-.2-.2-.3-.4-.3-.6zm-13.9 8.5c.1 0 .1 0 0 0 .1 0 .1 0 0 0zm3.5 21.5c-.2.2-.5.3-.8.4v-.1c.2-.2.5-.3.7-.5 0 .1 0 .2.1.2zm-40.8-29.5c.2-.3.5-.6.7-.9l.2.1c-.2.3-.6.7-.8 1l-.1-.2zm-6.2 10.7c-.2-.4-.3-.8-.5-1.1.1 0 .1-.1.2-.1.2.3.3.8.5 1.1l-.2.1zm5.5-10.5c-.1.2-.3.4-.4.6l-.3.1c.2-.2.5-.6.7-.7zm39.1 30.2c.1 0 .1 0 0 0h.5c-.2.2-.4.2-.5 0zm-39-29.3c0-.1.1-.1.1-.2h.1c.1-.2.1-.3.2-.4h-.1c-.1.1-.3.2-.4.3v.1c-.2 0-.2.1-.3.3 0 .1-.1.1-.2.2 0 0 0 .2-.1.3l-.1.1c-.1.1-.3.2-.4.4v.2l.6-.6c.1-.1.2-.3.2-.4v.1c-.1.2-.1.4-.2.5 0 0-.1.1-.1 0l-.2.2-.4.3c-.2.2-.4.4-.7.6-.2.2-.3.5-.5.7.3-.1.3 0 .3.3.3 0 .3-.2.4-.4 0 0 0-.1.1-.2.2-.2.4-.3.6-.5v-.2h-.2c.2-.2.5-.6.7-.8l.2-.2c0-.2.1-.3.3-.4.1-.2.1-.3.1-.3zm.4-.2c-.1.2-.2.3-.3.4l-.1-.1c-.1.5-.4.9-.7 1 .1 0 .2.1.2.1.1 0 .1-.1.2-.2l.6-.8.1-.4zm-7.2 9.5h.3c0-.1.1-.1.1-.2h.1v.3l-.5-.1zm-.2-1c-.1-.1-.2-.1-.2-.2s0-.2.1-.3c.1.2.1.3.1.5zm.5-1.3c.1.2.2.5.3.7-.1 0-.1 0-.2.1-.1-.2-.2-.5-.3-.7.1-.1.2-.1.2-.1zm48.5 20.8c.1 0 .2-.1.4-.1-.2.2-.3.3-.5.4h-.1c.1-.2.1-.2.2-.3zm-26.8-46.1c.1-.1.2-.2.4-.2-.1.2-.2.3-.4.6v-.4c0 .1 0 .1 0 0zm6.4 11.1l.6-.3v.3h-.2c-.1 0-.4.2-.5.2l.1-.2zm16.3 18.4c0 .2.5.3 0 .5.1 0 .1.1.2.1v.1s-.1.1-.2 0l-.1-.1c.1-.1.1-.3.1-.6z"/></svg>
