<svg width="595" height="226" viewBox="0 0 595 226" xmlns="http://www.w3.org/2000/svg"><title>emberjs</title><g fill="#D14735" fill-rule="evenodd"><path d="M411.383 169.398s-2.75-9.75 7.5-28.5 18.25-8.5 18.25-8.5 8.75 9.5-1.25 23.75-24.5 13.25-24.5 13.25zm-78.75 13.5c-11.75 30.75-40.25 18.25-40.25 18.25s-3.25-11 6-41.75 31-18.75 31-18.75 15 11.5 3.25 42.25zm-21.25-128.75s17.75-46.25 22-23.75-37.25 89.5-37.25 89.5c.5-15 15.25-65.75 15.25-65.75zm-253.75 115.25c.75-29.75 20.25-42.75 27-36.25s4.25 20.5-8.5 29.25-18.5 7-18.5 7zm537.75-4.937c-1-10-10-6.282-10-6.282s-14.5 11.237-27.25 9.986c-12.75-1.251-8.75-29.76-8.75-29.76s2.75-26.123-4.75-28.313c-7.5-2.19-16.75 6.808-16.75 6.808s-11.5 12.749-17 28.999l-1.5.5s1.75-28.501-.25-35.001c-1.5-3.25-15.25-3-17.5 2.75s-13.25 45.75-14 62.5c0 0-21.5 18.25-40.25 21.25s-23.25-8.75-23.25-8.75 51-14.25 49.25-55-41.125-25.683-45.584-22.333c-4.31 3.239-27.325 17.123-34.038 55.56-.229 1.312-.628 7.023-.628 7.023s-19.75 13.25-30.75 16.75c0 0 30.75-51.75-6.75-75.25-17-10.25-30.5 11.25-30.5 11.25s50.75-56.5 39.5-104.25C349.275.16 337.91-2.284 327.471 1.396c-15.838 6.252-21.838 15.502-21.838 15.502s-20.5 29.75-25.25 74-11.75 97.75-11.75 97.75-9.75 9.5-18.75 10-5-26.75-5-26.75 7-41.5 6.5-48.5-1-10.75-9.25-13.25-17.25 8-17.25 8-23.75 36-25.75 41.5l-1.25 2.25-1.25-1.5s16.75-49 .75-49.75-26.5 17.5-26.5 17.5-18.25 30.5-19 34l-1.25-1.5s7.5-35.5 6-44.25-9.75-7-9.75-7-10.5-1.25-13.25 5.5-12.75 51.5-14 65.75c0 0-26.25 18.75-43.5 19s-15.5-10.938-15.5-10.938 63.25-21.656 46-64.406c-7.75-11-16.75-14.453-29.5-14.203s-28.2 8.024-38.45 31.024c-4.892 10.977-6.3 21.38-7.3 29.265v-.003s-11.45 2.26-17.45-2.74-9.275 0-9.275 0-10.388 12.938-.138 16.938c10.25 4 26.155 5.683 26.155 5.683h-.01c1.468 7 5.744 19.077 18.223 28.56 18.75 14.25 54.747-1.214 54.747-1.214l14.75-8.233s.498 13.557 11.248 15.532c10.75 1.976 15.25-.02 34-45.52 11-23.25 11.75-21.997 11.75-21.997l1.25-.25s-8.5 44.502-5.25 56.502 17.5 10.749 17.5 10.749 7.75 1.31 14-20.69 18.25-46.44 18.25-46.44h1.5s-5.25 45.69 2.75 60.19 28.75 4.97 28.75 4.97 14.5-7.264 16.75-9.514c0 0 17.214 14.666 41.485 12.016 54.265-10.68 73.565-25.091 73.565-25.091s9.325 23.624 38.2 25.812c33 2.5 51-18.251 51-18.251s-.25 13.5 11.25 18.25 19.25-22.13 19.25-22.13l19.25-53.251h1.75s1 34.69 20 40.19 43.75-12.78 43.75-12.78 6-3.217 5-13.217z"/><path d="M516.36 218.96h.72c.84 0 1.24.32 1.36 1.04.2.76.32 1.36.52 1.6h1.64c-.16-.24-.28-.64-.48-1.64-.2-.88-.56-1.36-1.2-1.6v-.08c.8-.24 1.36-.8 1.36-1.52 0-.64-.28-1.16-.64-1.44-.48-.28-1.04-.48-2.28-.48-1.08 0-1.92.08-2.52.2v6.56h1.52v-2.64zm.04-2.96c.16-.04.44-.08.84-.08.96 0 1.4.4 1.4 1 0 .68-.68.96-1.52.96h-.72V216zm1-4.4c-3.76 0-6.76 2.92-6.76 6.56 0 3.72 3 6.64 6.76 6.64 3.8 0 6.72-2.92 6.72-6.64 0-3.64-2.92-6.56-6.72-6.56zm0 1.32c2.92 0 5.04 2.36 5.04 5.28 0 2.88-2.12 5.2-5 5.2-2.96 0-5.12-2.32-5.12-5.24 0-2.88 2.16-5.24 5.08-5.24z"/></g></svg>